<svg height="354pt" viewBox="-6 0 354 354.98667" width="354pt" xmlns="http://www.w3.org/2000/svg"><path d="m7.320312 95.574219h327.679688v238.933593h-327.679688zm0 0" fill="#0e65e5"/><path d="m335 341.332031h-327.679688c-3.769531 0-6.828124-3.054687-6.828124-6.824219v-238.933593c0-3.769531 3.058593-6.828125 6.828124-6.828125h327.679688c3.769531 0 6.828125 3.058594 6.828125 6.828125v238.933593c0 3.769532-3.058594 6.824219-6.828125 6.824219zm-320.851562-13.652343h314.023437v-225.28125h-314.023437zm0 0" fill="#0e65e5"/><path d="m27.800781 109.226562h286.71875v238.933594h-286.71875zm0 0" fill="#94c1ff"/><g fill="#0e65e5"><path d="m314.519531 354.988281h-286.71875c-3.769531 0-6.828125-3.058593-6.828125-6.828125v-238.933594c0-3.769531 3.058594-6.828124 6.828125-6.828124h286.71875c3.769531 0 6.828125 3.058593 6.828125 6.828124v238.933594c0 3.769532-3.058594 6.828125-6.828125 6.828125zm-279.894531-13.65625h273.066406v-225.277343h-273.066406zm0 0"/><path d="m74.695312 292.800781v-11.40625l14.570313-14.144531c35.046875-33.363281 50.882813-51.097656 51.09375-71.789062 0-13.933594-6.757813-26.816407-27.234375-26.816407-12.457031 0-22.804688 6.335938-29.136719 11.617188l-5.914062-13.09375c9.5-8.023438 23.011719-13.933594 38.851562-13.933594 29.558594 0 42.019531 20.269531 42.019531 39.90625 0 25.335937-18.371093 45.816406-47.296874 73.691406l-10.980469 10.132813v.421875h61.652343v15.414062zm0 0"/><path d="m264.941406 171.179688h-52.359375l-5.28125 35.261718c3.164063-.421875 6.125-.84375 11.191407-.84375 10.554687 0 21.117187 2.320313 29.558593 7.390625 10.769531 6.121094 19.636719 17.945313 19.636719 35.257813 0 26.816406-21.324219 46.878906-51.097656 46.878906-14.988282 0-27.660156-4.226562-34.207032-8.449219l4.648438-14.144531c5.699219 3.378906 16.890625 7.597656 29.351562 7.597656 17.523438 0 32.515626-11.398437 32.515626-29.769531-.214844-17.734375-12.035157-30.402344-39.488282-30.402344-7.808594 0-13.933594.84375-19.003906 1.476563l8.871094-65.875h65.667968v15.621094zm0 0"/></g><path d="m335 40.960938h-327.679688v55.332031c0 14.683593 11.902344 26.585937 26.585938 26.585937h274.503906c14.683594 0 26.589844-11.902344 26.589844-26.585937zm0 0" fill="#2a8ee6"/><path d="m308.410156 129.707031h-274.5c-18.425781 0-33.417968-14.988281-33.417968-33.417969v-55.328124c0-3.769532 3.058593-6.828126 6.828124-6.828126h327.679688c3.769531 0 6.828125 3.058594 6.828125 6.828126v55.328124c0 18.429688-14.992187 33.417969-33.417969 33.417969zm-294.261718-81.921875v48.503906c0 10.898438 8.863281 19.765626 19.761718 19.765626h274.5c10.898438 0 19.761719-8.867188 19.761719-19.765626v-48.503906zm0 0" fill="#0e65e5"/><path d="m99.480469 75.09375c-9.425781 0-17.066407-7.640625-17.066407-17.066406v-34.132813c0-9.425781 7.640626-17.066406 17.066407-17.066406s17.066406 7.640625 17.066406 17.066406v34.132813c0 9.425781-7.640625 17.066406-17.066406 17.066406zm0 0" fill="#94c1ff"/><path d="m99.480469 81.921875c-13.175781 0-23.894531-10.722656-23.894531-23.894531v-34.132813c0-13.175781 10.71875-23.894531 23.894531-23.894531 13.171875 0 23.894531 10.71875 23.894531 23.894531v34.132813c0 13.171875-10.722656 23.894531-23.894531 23.894531zm0-68.269531c-5.648438 0-10.242188 4.59375-10.242188 10.242187v34.132813c0 5.648437 4.59375 10.238281 10.242188 10.238281 5.648437 0 10.238281-4.589844 10.238281-10.238281v-34.132813c0-5.648437-4.589844-10.242187-10.238281-10.242187zm0 0" fill="#0e65e5"/><path d="m242.839844 75.09375c-9.425782 0-17.066406-7.640625-17.066406-17.066406v-34.132813c0-9.425781 7.640624-17.066406 17.066406-17.066406 9.425781 0 17.066406 7.640625 17.066406 17.066406v34.132813c0 9.425781-7.640625 17.066406-17.066406 17.066406zm0 0" fill="#94c1ff"/><path d="m242.839844 81.921875c-13.171875 0-23.894532-10.722656-23.894532-23.894531v-34.132813c0-13.175781 10.722657-23.894531 23.894532-23.894531 13.175781 0 23.894531 10.71875 23.894531 23.894531v34.132813c0 13.171875-10.71875 23.894531-23.894531 23.894531zm0-68.269531c-5.648438 0-10.238282 4.59375-10.238282 10.242187v34.132813c0 5.648437 4.589844 10.238281 10.238282 10.238281 5.648437 0 10.238281-4.589844 10.238281-10.238281v-34.132813c0-5.648437-4.589844-10.242187-10.238281-10.242187zm0 0" fill="#0e65e5"/><path d="m307.691406 245.761719c-3.769531 0-6.824218-3.058594-6.824218-6.828125v-27.308594c0-3.769531 3.054687-6.824219 6.824218-6.824219 3.773438 0 6.828125 3.054688 6.828125 6.824219v27.308594c0 3.769531-3.054687 6.828125-6.828125 6.828125zm0 0" fill="#fff"/><path d="m321.347656 232.105469h-27.308594c-3.769531 0-6.824218-3.054688-6.824218-6.824219s3.054687-6.828125 6.824218-6.828125h27.308594c3.769532 0 6.824219 3.058594 6.824219 6.828125s-3.054687 6.824219-6.824219 6.824219zm0 0" fill="#fff"/><path d="m48.28125 211.625c-3.769531 0-6.828125-3.054688-6.828125-6.824219v-61.441406c0-3.769531 3.058594-6.824219 6.828125-6.824219s6.824219 3.054688 6.824219 6.824219v61.441406c0 3.769531-3.054688 6.824219-6.824219 6.824219zm0 0" fill="#fff"/></svg>