<svg height="512pt" viewBox="0 0 512 512.0001" width="512pt" xmlns="http://www.w3.org/2000/svg"><path d="m282.484375 17.65625v423.722656h-282.484375v-422.574218c-.0117188-4.992188 1.964844-9.78125 5.496094-13.308594 3.527344-3.53125 8.316406-5.5078128 13.308594-5.496094h246.023437c9.738281.0273438 17.625 7.917969 17.65625 17.65625zm0 0" fill="#b0d3f0"/><path d="m282.484375 232.960938v208.417968h-282.484375v-143.449218c46.609375-63.644532 131.621094-119.347657 282.484375-64.96875zm0 0" fill="#90bae1"/><path d="m282.484375 441.378906v51.820313c.011719 4.988281-1.96875 9.777343-5.496094 13.304687-3.527343 3.53125-8.316406 5.507813-13.308593 5.496094h-244.875c-4.992188.011719-9.78125-1.964844-13.308594-5.496094-3.53125-3.527344-5.5078128-8.316406-5.496094-13.304687v-51.820313zm0 0" fill="#35495e"/><path d="m185.378906 485.515625h-88.273437c-4.878907 0-8.828125-3.949219-8.828125-8.824219 0-4.878906 3.949218-8.828125 8.828125-8.828125h88.273437c4.875 0 8.828125 3.949219 8.828125 8.828125 0 4.875-3.953125 8.824219-8.828125 8.824219zm0 0" fill="#2c3e50"/><path d="m203.035156 238.34375h35.308594c4.875 0 8.828125 3.953125 8.828125 8.828125v8.828125c0 14.625-11.855469 26.484375-26.480469 26.484375h-158.898437c-14.625 0-26.484375-11.859375-26.484375-26.484375v-8.828125c0-4.875 3.953125-8.828125 8.828125-8.828125zm0 0" fill="#e57e25"/><path d="m192.734375 238.34375h29.429687c4.449219.445312 7.722657 4.371094 7.351563 8.828125v8.828125c1.109375 13.371094-8.714844 25.160156-22.066406 26.484375h-132.414063c-13.351562-1.324219-23.175781-13.113281-22.070312-26.484375v-8.828125c-.367188-4.457031 2.90625-8.382813 7.355468-8.828125zm0 0" fill="#f29c1f"/><path d="m132.414062 238.34375h-69.472656c-14.941406.3125-27.308594-11.542969-27.632812-26.480469.324218-14.941406 12.691406-26.792969 27.632812-26.484375h156.601563c14.941406-.308594 27.304687 11.542969 27.628906 26.484375-.324219 14.9375-12.6875 26.792969-27.628906 26.480469zm0 0" fill="#802f34"/><path d="m45.292969 220.691406c-3.417969.433594-6.78125-1.148437-8.628907-4.058594-1.847656-2.914062-1.847656-6.628906 0-9.539062 1.847657-2.910156 5.210938-4.492188 8.628907-4.058594h191.894531c3.421875-.433594 6.785156 1.148438 8.632812 4.058594 1.847657 2.910156 1.847657 6.625 0 9.539062-1.847656 2.910157-5.210937 4.492188-8.632812 4.058594zm0 0" fill="#cc4b4c"/><path d="m123.585938 88.277344h35.3125c23.410156 0 45.863281 9.300781 62.417968 25.855468 16.554688 16.554688 25.855469 39.007813 25.855469 62.417969 0 4.875-3.953125 8.828125-8.828125 8.828125h-194.207031c-4.875 0-8.828125-3.953125-8.828125-8.828125 0-48.753906 39.523437-88.273437 88.277344-88.273437zm0 0" fill="#e57e25"/><path d="m141.242188 88.277344c48.753906 0 88.273437 39.519531 88.273437 88.273437 0 4.875-3.949219 8.828125-8.824219 8.828125h-158.898437c-4.875 0-8.828125-3.953125-8.828125-8.828125 0-48.753906 39.523437-88.273437 88.277344-88.273437zm0 0" fill="#f29c1f"/><g fill="#f3d55b"><path d="m123.585938 123.585938c0 4.875-3.953126 8.828124-8.828126 8.828124s-8.828124-3.953124-8.828124-8.828124 3.953124-8.828126 8.828124-8.828126 8.828126 3.953126 8.828126 8.828126zm0 0"/><path d="m176.550781 123.585938c0 4.875-3.953125 8.828124-8.828125 8.828124s-8.824218-3.953124-8.824218-8.828124 3.949218-8.828126 8.824218-8.828126 8.828125 3.953126 8.828125 8.828126zm0 0"/><path d="m211.863281 150.070312c0 4.875-3.953125 8.828126-8.828125 8.828126s-8.828125-3.953126-8.828125-8.828126 3.953125-8.828124 8.828125-8.828124 8.828125 3.953124 8.828125 8.828124zm0 0"/><path d="m88.277344 150.070312c0 4.875-3.953125 8.828126-8.828125 8.828126s-8.828125-3.953126-8.828125-8.828126 3.953125-8.828124 8.828125-8.828124 8.828125 3.953124 8.828125 8.828124zm0 0"/><path d="m97.105469 361.929688h88.273437c9.75 0 17.65625 7.90625 17.65625 17.65625s-7.90625 17.65625-17.65625 17.65625h-88.273437c-9.753907 0-17.65625-7.90625-17.65625-17.65625s7.902343-17.65625 17.65625-17.65625zm0 0"/></g><path d="m61.792969 0h158.898437v17.65625c0 9.75-7.90625 17.652344-17.65625 17.652344h-123.585937c-9.75 0-17.65625-7.902344-17.65625-17.652344zm0 0" fill="#2c3e50"/><path d="m132.414062 185.378906v52.964844c0 9.75 7.90625 17.65625 17.65625 17.65625s17.652344-7.90625 17.652344-17.65625v61.792969c0 9.75 7.90625 17.65625 17.65625 17.65625s17.65625-7.90625 17.65625-17.65625v-114.757813zm0 0" fill="#f3d55b"/><path d="m264.828125 8.828125c4.875 0 8.828125 3.953125 8.828125 8.828125v476.6875c0 4.875-3.953125 8.828125-8.828125 8.828125h-247.171875c-4.875 0-8.828125-3.953125-8.828125-8.828125v-476.6875c0-4.875 3.953125-8.828125 8.828125-8.828125zm0-8.828125h-247.171875c-9.75 0-17.65625 7.90625-17.65625 17.65625v476.6875c0 9.75 7.90625 17.65625 17.65625 17.65625h247.171875c9.75 0 17.65625-7.90625 17.65625-17.65625v-476.6875c0-9.75-7.90625-17.65625-17.65625-17.65625zm0 0" fill="#2c3e50"/><path d="m512 379.585938c0 73.128906-59.285156 132.414062-132.414062 132.414062-73.128907 0-132.414063-59.285156-132.414063-132.414062 0-73.128907 59.285156-132.414063 132.414063-132.414063 73.128906 0 132.414062 59.285156 132.414062 132.414063zm0 0" fill="#7d6599"/><path d="m494.34375 379.585938c0 63.378906-51.378906 114.757812-114.757812 114.757812-63.378907 0-114.757813-51.378906-114.757813-114.757812 0-63.378907 51.378906-114.757813 114.757813-114.757813 63.378906 0 114.757812 51.378906 114.757812 114.757813zm0 0" fill="#3d324c"/><path d="m476.691406 379.585938c0 3-.179687 5.914062-.441406 8.828124-4.273438 46.625-41.210938 83.558594-87.835938 87.835938-2.914062.261719-5.828124.441406-8.828124.441406s-5.914063-.179687-8.828126-.441406c-27.121093-2.425781-51.960937-16.175781-68.414062-37.871094-11.105469-14.464844-17.84375-31.800781-19.417969-49.964844-.265625-2.914062-.441406-5.828124-.441406-8.828124s.175781-5.914063.441406-8.828126c4.273438-46.625 41.207031-83.558593 87.832031-87.832031 2.914063-.265625 5.828126-.441406 8.828126-.441406s5.914062.175781 8.828124.441406c46.625 4.273438 83.5625 41.207031 87.835938 87.832031.175781 1.941407.351562 3.886719.351562 5.914063.089844.972656.089844 1.941406.089844 2.914063zm0 0" fill="#b0d3f0"/><path d="m476.691406 379.585938c0 3-.179687 5.914062-.441406 8.828124-4.273438 46.625-41.210938 83.558594-87.835938 87.835938-2.914062.261719-5.828124.441406-8.828124.441406s-5.914063-.179687-8.828126-.441406c-27.121093-2.425781-51.960937-16.175781-68.414062-37.871094 26.925781-41.753906 82.539062-98.253906 174.257812-61.707031.089844.972656.089844 1.941406.089844 2.914063zm0 0" fill="#90bae1"/><path d="m414.898438 256h-17.65625v-17.65625c0-9.75-7.90625-17.652344-17.65625-17.652344s-17.65625 7.902344-17.65625 17.652344v17.65625h-17.652344v-17.65625c0-19.5 15.808594-35.308594 35.308594-35.308594s35.3125 15.808594 35.3125 35.308594zm0 0" fill="#7d6599"/><path d="m388.414062 274.097656v26.039063c0 4.875-3.953124 8.828125-8.828124 8.828125s-8.828126-3.953125-8.828126-8.828125v-26.039063c2.914063-.265625 5.828126-.441406 8.828126-.441406s5.914062.175781 8.828124.441406zm0 0" fill="#3d324c"/><path d="m388.414062 459.035156v26.039063c-2.914062.265625-5.828124.441406-8.828124.441406s-5.914063-.175781-8.828126-.441406v-26.039063c0-4.875 3.953126-8.828125 8.828126-8.828125s8.828124 3.953125 8.828124 8.828125zm0 0" fill="#3d324c"/><path d="m308.964844 379.585938c0 4.875-3.953125 8.828124-8.828125 8.828124h-26.039063c-.265625-2.914062-.441406-5.828124-.441406-8.828124s.175781-5.914063.441406-8.828126h26.039063c4.875 0 8.828125 3.953126 8.828125 8.828126zm0 0" fill="#3d324c"/><path d="m485.515625 379.585938c0 3-.175781 5.914062-.441406 8.828124h-26.039063c-4.875 0-8.828125-3.953124-8.828125-8.828124s3.953125-8.828126 8.828125-8.828126h26.039063c.265625 2.914063.441406 5.828126.441406 8.828126zm0 0" fill="#3d324c"/><path d="m423.722656 432.550781c-2.339844 0-4.585937-.929687-6.238281-2.585937l-44.140625-44.136719c-1.652344-1.65625-2.585938-3.902344-2.585938-6.242187v-44.136719c0-4.875 3.953126-8.828125 8.828126-8.828125s8.828124 3.953125 8.828124 8.828125v40.480469l41.550782 41.554687c2.523437 2.523437 3.277344 6.320313 1.914062 9.617187-1.367187 3.296876-4.585937 5.449219-8.15625 5.449219zm0 0" fill="#2c3e50"/><path d="m406.070312 185.378906c0 14.625-11.859374 26.484375-26.484374 26.484375s-26.480469-11.859375-26.480469-26.484375 11.855469-26.480468 26.480469-26.480468 26.484374 11.855468 26.484374 26.480468zm0 0" fill="#3d324c"/></svg>