<?xml version="1.0" encoding="iso-8859-1"?>
<!-- Generator: Adobe Illustrator 18.0.0, SVG Export Plug-In . SVG Version: 6.00 Build 0)  -->
<!DOCTYPE svg PUBLIC "-//W3C//DTD SVG 1.1//EN" "http://www.w3.org/Graphics/SVG/1.1/DTD/svg11.dtd">
<svg version="1.1" id="Capa_1" xmlns="http://www.w3.org/2000/svg" xmlns:xlink="http://www.w3.org/1999/xlink" x="0px" y="0px"
	 viewBox="0 0 472.397 472.397" style="enable-background:new 0 0 472.397 472.397;" xml:space="preserve">
<path d="M461.271,348.884c-6.339-5.654-14.296-8.261-22.403-7.329c-7.175,0.82-15.526,2.233-24.577,3.952V119.898
	c0-15.359-12.495-27.855-27.854-27.855h-44.603V65.061c0-34.019-27.678-61.696-61.697-61.696c-34.02,0-61.696,27.677-61.696,61.696
	v26.983h-44.603c-15.359,0-27.855,12.495-27.855,27.854V264.41c-19.656,3.432-44.789,11.169-65.093,28.487
	c-6.704,5.718-12.036,11.121-16.288,16.031c-4.498-5.621-11.41-9.232-19.153-9.232H10.5c-5.799,0-10.5,4.701-10.5,10.5v148.335
	c0,2.785,1.107,5.456,3.075,7.425c1.97,1.969,4.641,3.075,7.425,3.075l34.947-0.001c13.525,0,24.528-11.003,24.528-24.527v-8.069
	c10.451,0.656,34.135,3.241,84.261,12.652c59.194,11.115,96.13,14.882,125.231,14.881c20.856,0,37.691-1.934,55.801-4.485
	c22.387-3.151,50.544-11.116,75.386-18.143c11.5-3.253,22.362-6.325,31.974-8.749c25.901-6.533,29.769-22.865,29.769-32.02v-26.749
	C472.397,364.422,468.237,355.099,461.271,348.884z M239.439,65.061c0-22.44,18.256-40.696,40.696-40.696
	c22.44,0,40.697,18.256,40.697,40.696v26.982l-81.394,0.001V65.061z M166.982,119.898c0-3.779,3.075-6.854,6.855-6.854h44.603
	v23.173c0,5.799,4.701,10.5,10.5,10.5s10.5-4.701,10.5-10.5v-23.173l81.394-0.001v23.174c0,5.799,4.701,10.5,10.5,10.5
	c5.799,0,10.5-4.701,10.5-10.5v-23.174h44.603c3.779,0,6.854,3.075,6.854,6.855v228.787c0,0.341,0.02,0.677,0.051,1.009
	c-1.586,0.327-3.178,0.654-4.78,0.985c-25.482,5.256-51.83,10.69-72.004,11.951c-17.424,1.09-49.16-3.453-58.563-8.379
	c-6.342-3.322-9.89-7.397-11.877-10.998h39.11c16.135,0,29.261-13.126,29.261-29.26v-22.977c0-16.134-13.126-29.259-29.261-29.259
	H178.02c-1.094-0.033-5.086-0.116-11.038,0.222V119.898z M48.976,444.504c0,1.945-1.583,3.527-3.528,3.527L21,448.032V320.697
	h24.447c1.945,0,3.528,1.582,3.528,3.527V444.504z M451.397,400.571c0,2.229,0,8.15-13.903,11.656
	c-9.903,2.498-20.906,5.61-32.555,8.905c-24.198,6.845-51.625,14.603-72.598,17.555c-41.317,5.818-75.766,8.248-174.23-10.239
	c-50.64-9.509-75.773-12.383-88.136-13.041v-77.961c0.375-0.469,0.723-0.968,1.021-1.513c2.69-4.908,9.323-14.949,23.521-27.059
	c32.373-27.614,82.418-26.144,82.913-26.125c0.136,0.005,0.272,0.008,0.408,0.008h107.39c4.555,0,8.261,3.705,8.261,8.259v22.977
	c0,4.555-3.706,8.26-8.261,8.26h-107.39c-5.799,0-10.5,4.701-10.5,10.5c0,5.799,4.701,10.5,10.5,10.5h45.977
	c2.159,8.61,8.116,21.052,24.435,29.6c14.925,7.819,51.944,11.848,69.616,10.736c21.654-1.353,48.742-6.939,74.938-12.343
	c18.396-3.795,35.772-7.379,48.451-8.829c2.675-0.299,4.756,0.993,6.037,2.137c2.532,2.259,4.106,5.811,4.106,9.267V400.571z"/>
<g>
</g>
<g>
</g>
<g>
</g>
<g>
</g>
<g>
</g>
<g>
</g>
<g>
</g>
<g>
</g>
<g>
</g>
<g>
</g>
<g>
</g>
<g>
</g>
<g>
</g>
<g>
</g>
<g>
</g>
</svg>
