<?xml version="1.0" encoding="iso-8859-1"?>
<!-- Generator: Adobe Illustrator 19.0.0, SVG Export Plug-In . SVG Version: 6.00 Build 0)  -->
<svg version="1.1" id="Capa_1" xmlns="http://www.w3.org/2000/svg" xmlns:xlink="http://www.w3.org/1999/xlink" x="0px" y="0px"
	 viewBox="0 0 512 512" style="enable-background:new 0 0 512 512;" xml:space="preserve">
<path style="fill:#F63E31;" d="M147.663,304.46h-7.611c-32.177,0-58.355-26.177-58.355-58.355s26.177-58.355,58.355-58.355h7.611
	v15.223h-7.611c-23.783,0-43.132,19.348-43.132,43.132s19.348,43.132,43.132,43.132h7.611V304.46z"/>
<path style="fill:#3C9997;" d="M249.02,497.166l-25.242-8.413V292.818h-15.223v201.419c0,3.277,2.096,6.186,5.204,7.221
	l30.446,10.149c0.799,0.266,1.611,0.393,2.408,0.393c3.187,0,6.156-2.017,7.22-5.206
	C255.163,502.805,253.008,498.494,249.02,497.166z"/>
<path style="fill:#51B5B2;" d="M147.663,488.752l-25.242,8.413c-3.988,1.329-6.143,5.641-4.814,9.628
	c1.064,3.19,4.033,5.206,7.22,5.206c0.798,0,1.61-0.127,2.408-0.393l30.446-10.149c3.109-1.036,5.204-3.945,5.204-7.221v-201.42
	h-15.223V488.752z"/>
<path style="fill:#EE1F3D;" d="M362.177,167.761c-3.76,7.197-8.656,13.951-14.694,19.989c-32.006,32.008-84.087,32.008-116.094,0
	c-1.539-1.539-3.005-3.13-4.404-4.766h-18.955c3.59,5.494,7.773,10.71,12.593,15.532c18.972,18.971,43.892,28.457,68.812,28.457
	s49.839-9.486,68.812-28.457c8.98-8.98,15.982-19.408,20.802-30.755H362.177z"/>
<path style="fill:#3C9997;" d="M185.721,258.791v76.115c25.222,0,45.669-20.447,45.669-45.669L185.721,258.791z"/>
<path style="fill:#51B5B2;" d="M200.944,289.237l-15.223-30.446l-45.669,30.446c0,25.222,20.447,45.669,45.669,45.669
	C194.128,334.906,200.944,314.459,200.944,289.237z"/>
<path style="fill:#EE1F3D;" d="M211.092,167.453h-10.149l-20.297,30.446l20.297,91.338h30.446V187.75
	C231.389,176.54,222.302,167.453,211.092,167.453z"/>
<path style="fill:#F63E31;" d="M193.332,167.453l-7.611,25.372l-7.611-25.372h-17.76c-11.21,0-20.297,9.087-20.297,20.297v101.487
	h60.892V167.453H193.332z"/>
<path style="fill:#D69C6E;" d="M185.721,55.818v81.189c25.222,0,45.669-20.447,45.669-45.669V76.115L185.721,55.818z"/>
<path style="fill:#E4B780;" d="M200.944,91.338v-35.52l-60.892,20.297v15.223c0,25.222,20.447,45.669,45.669,45.669
	C194.128,137.007,200.944,116.56,200.944,91.338z"/>
<g>
	<path style="fill:#EE1F3D;" d="M185.721,30.446c-25.222,0-45.669,20.447-45.669,45.669h91.338
		C231.389,50.892,210.943,30.446,185.721,30.446z"/>
	<path style="fill:#EE1F3D;" d="M81.697,68.503c-4.205,0-7.611,3.407-7.611,7.611s3.407,7.611,7.611,7.611h149.693v-7.611
		l-10.149-7.611H81.697z"/>
</g>
<path style="fill:#CDF2F1;" d="M178.109,167.453v121.784c0,4.205,3.407,7.611,7.611,7.611s7.611-3.407,7.611-7.611V167.453H178.109z
	"/>
<polygon style="fill:#F2D392;" points="437.915,30.446 356.725,15.223 407.469,182.676 437.915,182.676 437.915,152.23 
	422.692,137.007 437.915,121.784 437.915,91.338 422.692,76.115 437.915,60.892 "/>
<g>
	<polygon style="fill:#FFE368;" points="278.581,30.446 278.581,60.892 341.968,75.865 278.581,91.338 278.581,121.784 
		341.968,136.757 278.581,152.23 278.581,182.676 407.469,182.676 407.469,15.223 	"/>
	<polygon style="fill:#FFE368;" points="407.469,121.784 377.023,137.007 407.469,152.23 437.915,152.23 437.915,121.784 	"/>
</g>
<rect x="278.581" y="121.784" style="fill:#FFEFAB;" width="128.888" height="30.446"/>
<polygon style="fill:#FFE368;" points="407.469,60.892 377.023,76.115 407.469,91.338 437.915,91.338 437.915,60.892 "/>
<rect x="278.581" y="60.892" style="fill:#FFEFAB;" width="128.888" height="30.446"/>
<polygon style="fill:#FFE368;" points="407.469,0 377.023,15.223 407.469,30.446 437.915,30.446 437.915,0 "/>
<rect x="278.581" style="fill:#FFEFAB;" width="128.888" height="30.446"/>
<g>
</g>
<g>
</g>
<g>
</g>
<g>
</g>
<g>
</g>
<g>
</g>
<g>
</g>
<g>
</g>
<g>
</g>
<g>
</g>
<g>
</g>
<g>
</g>
<g>
</g>
<g>
</g>
<g>
</g>
</svg>
