<svg height="512pt" viewBox="-59 0 511 512" width="512pt" xmlns="http://www.w3.org/2000/svg"><path d="m188.515625 72.328125v21.152344c0 25.308593-20.519531 45.832031-45.84375 45.832031h-39.289063c-25.3125 0-45.832031-20.523438-45.832031-45.832031v-21.152344c0-17.089844 9.351563-31.996094 23.210938-39.878906 9.433593-5.363281 20.707031-6.476563 31.171875-3.636719l.039062.011719c7.449219 2.023437 15.1875 1.902343 22.109375 0l.039063-.011719c10.480468-2.839844 21.738281-1.730469 31.175781 3.636719 13.863281 7.882812 23.21875 22.789062 23.21875 39.878906zm0 0" fill="#ffd659"/><path d="m188.515625 72.328125v21.152344c0 25.308593-20.519531 45.832031-45.84375 45.832031h-22.941406c-.320313-21.191406-.835938-65.230469.195312-79.386719.910157-12.503906 6.636719-23.953125 10.394531-30.265625 1.269532-.21875 2.527344-.496094 3.761719-.835937l.039063-.007813c10.480468-2.84375 21.738281-1.730468 31.175781 3.636719 13.863281 7.878906 23.21875 22.785156 23.21875 39.875zm0 0" fill="#ffbd54"/><path d="m100.808594 191.445312h-39.296875c-25.3125 0-45.835938-20.519531-45.835938-45.835937v-21.152344c0-17.089843 9.351563-31.996093 23.21875-39.878906 9.433594-5.359375 20.699219-6.480469 31.171875-3.632813l.039063.007813c7.238281 1.96875 14.871093 1.96875 22.109375 0l.039062-.007813c10.472656-2.847656 21.738282-1.726562 31.171875 3.632813 13.863281 7.882813 23.21875 22.789063 23.21875 39.878906v21.152344c0 25.316406-20.523437 45.835937-45.835937 45.835937zm0 0" fill="#fe5555"/><path d="m123.425781 84.582031c-9.433593-5.363281-20.699219-6.484375-31.171875-3.636719l-.039062.011719c-1.707032.464844-3.4375.808594-5.179688 1.054688 1.882813.707031 3.714844 1.5625 5.484375 2.570312 13.867188 7.882813 23.21875 22.785157 23.21875 39.875v21.15625c0 25.3125-20.523437 45.835938-45.835937 45.835938h30.902344c25.316406 0 45.835937-20.523438 45.835937-45.835938v-21.15625c.003906-17.089843-9.351563-31.996093-23.214844-39.875zm0 0" fill="#e84141"/><path d="m294.410156 232.554688c-42.898437 0-77.671875-34.777344-77.671875-77.671876v-77.210937c0-42.898437 34.773438-77.671875 77.667969-77.671875 42.898438 0 77.671875 34.773438 77.671875 77.671875v77.210937c0 42.894532-34.773437 77.671876-77.667969 77.671876zm0 0" fill="#3bd387"/><path d="m294.40625 0c-5.289062 0-10.457031.535156-15.453125 1.542969 35.492187 7.164062 62.21875 38.523437 62.21875 76.128906v77.210937c0 37.605469-26.722656 68.960938-62.21875 76.128907 4.996094 1.007812 10.164063 1.539062 15.453125 1.539062 42.898438 0 77.671875-34.773437 77.671875-77.667969v-77.210937c0-42.898437-34.773437-77.671875-77.671875-77.671875zm0 0" fill="#37c487"/><path d="m333.832031 110.019531-31.925781 16.855469v-32.402344l38.929688-20.550781c3.660156-1.933594 5.0625-6.472656 3.128906-10.136719-1.933594-3.660156-6.472656-5.0625-10.132813-3.128906l-31.925781 16.855469v-1.59375c0-4.140625-3.355469-7.5-7.5-7.5-4.140625 0-7.5 3.359375-7.5 7.5v1.59375l-31.921875-16.855469c-3.664063-1.933594-8.199219-.53125-10.132813 3.132812-1.933593 3.660157-.53125 8.199219 3.128907 10.132813l38.925781 20.554687v32.398438l-31.921875-16.851562c-3.664063-1.9375-8.199219-.535157-10.132813 3.128906-1.933593 3.664062-.53125 8.199218 3.128907 10.132812l38.925781 20.554688v125.382812c0 4.140625 3.359375 7.5 7.5 7.5 4.144531 0 7.5-3.359375 7.5-7.5v-125.386718l38.929688-20.550782c3.660156-1.933594 5.0625-6.472656 3.128906-10.136718-1.933594-3.660157-6.472656-5.0625-10.132813-3.128907zm0 0" fill="#2fa874"/><path d="m224.3125 232.554688c-42.894531 0-77.667969-34.777344-77.667969-77.671876v-77.210937c0-42.898437 34.773438-77.671875 77.667969-77.671875 42.898438 0 77.671875 34.773438 77.671875 77.671875v77.210937c0 42.894532-34.773437 77.671876-77.671875 77.671876zm0 0" fill="#3bd387"/><path d="m224.3125 0c-5.289062 0-10.457031.535156-15.453125 1.542969 35.492187 7.164062 62.21875 38.523437 62.21875 76.128906v77.210937c0 37.605469-26.722656 68.960938-62.21875 76.128907 4.996094 1.007812 10.164063 1.539062 15.453125 1.539062 42.898438 0 77.671875-34.773437 77.671875-77.667969v-77.210937c0-42.898437-34.773437-77.671875-77.671875-77.671875zm0 0" fill="#37c487"/><path d="m263.734375 110.019531-31.921875 16.855469v-32.402344l38.925781-20.550781c3.664063-1.933594 5.066407-6.472656 3.132813-10.136719-1.933594-3.660156-6.46875-5.0625-10.136719-3.128906l-31.921875 16.855469v-21.8125c0-4.140625-3.355469-7.5-7.5-7.5-4.140625 0-7.5 3.359375-7.5 7.5v21.8125l-31.921875-16.855469c-3.664063-1.933594-8.199219-.53125-10.132813 3.128906-1.9375 3.664063-.535156 8.199219 3.128907 10.136719l38.925781 20.550781v32.402344l-31.921875-16.855469c-3.664063-1.933593-8.199219-.53125-10.132813 3.128907-1.9375 3.664062-.535156 8.199218 3.128907 10.132812l38.925781 20.554688v125.382812c0 4.140625 3.359375 7.5 7.5 7.5 4.144531 0 7.5-3.359375 7.5-7.5v-125.382812l38.925781-20.550782c3.664063-1.933594 5.066407-6.472656 3.132813-10.136718-1.933594-3.660157-6.46875-5.0625-10.136719-3.128907zm0 0" fill="#2fa874"/><path d="m392.5 166.59375v304.21875c0 22.746094-18.464844 41.1875-41.242188 41.1875h-154.675781v-354.988281c3.261719-3.0625 6.550781-6.089844 13.070313-6.089844 13.164062 0 13.164062 12.363281 26.328125 12.363281 12.996093 0 13.160156-12.0625 25.847656-12.351562.15625-.011719.3125-.011719.476563-.011719 13.171874 0 13.171874 12.363281 26.335937 12.363281s13.164063-12.363281 26.335937-12.363281c13.164063 0 13.164063 12.363281 26.335938 12.363281 10.738281 0 12.71875-8.230468 20.238281-11.261718 1.691407-.679688 3.664063-1.101563 6.085938-1.101563 11.507812 0 12.964843 9.445313 21.933593 11.824219 1.734376.460937 2.929688 2.054687 2.929688 3.847656zm0 0" fill="#db9a6c"/><path d="m392.5 166.59375v304.21875c0 22.746094-18.464844 41.1875-41.242188 41.1875h-30.949218c22.777344 0 41.246094-18.441406 41.246094-41.1875v-318.789062c1.691406-.679688 3.660156-1.101563 6.085937-1.101563 11.507813 0 12.960937 9.445313 21.929687 11.824219 1.734376.460937 2.929688 2.054687 2.929688 3.847656zm0 0" fill="#c48252"/><path d="m303.082031 512h-261.339843c-22.777344 0-41.242188-18.441406-41.242188-41.1875v-314.660156c0-2.9375 3.097656-4.941406 5.71875-3.617188 6.621094 3.347656 8.921875 10.75 19.109375 10.75 13.164063 0 13.164063-12.363281 26.335937-12.363281 13.164063 0 13.164063 12.363281 26.328126 12.363281 13.164062 0 13.164062-12.363281 26.335937-12.363281 13.164063 0 13.164063 12.363281 26.324219 12.363281 13.164062 0 13.164062-12.363281 26.335937-12.363281 13.164063 0 13.164063 12.363281 26.328125 12.363281 6.652344 0 9.945313-3.152344 13.265625-6.273437 3.261719-3.0625 6.550781-6.089844 13.070313-6.089844 13.164062 0 13.164062 12.363281 26.324218 12.363281 13 0 13.164063-12.0625 25.851563-12.351562v319.878906c0 22.746094 18.46875 41.1875 41.253906 41.1875zm0 0" fill="#f5b387"/><path d="m328.363281 190.808594c-4.144531 0-7.5 3.359375-7.5 7.5v267.847656c0 4.144531 3.355469 7.5 7.5 7.5s7.5-3.355469 7.5-7.5v-267.847656c0-4.140625-3.355469-7.5-7.5-7.5zm0 0" fill="#b3764b"/></svg>