<svg height="495pt" viewBox="0 0 495 495.89395" width="495pt" xmlns="http://www.w3.org/2000/svg"><path d="m292.789062 109.667969c-13.71875 16.707031-22.007812 37.207031-23.75 58.753906l-35.003906-.886719c-2.015625-21.214844-10.28125-41.355468-23.753906-57.867187zm0 0" fill="#285680"/><path d="m311.003906 118.0625h-117.507812c-4.636719 0-8.394532-3.757812-8.394532-8.394531 0-4.632813 3.757813-8.390625 8.394532-8.390625h117.507812c4.636719 0 8.394532 3.757812 8.394532 8.390625 0 4.636719-3.757813 8.394531-8.394532 8.394531zm0 0" fill="#285680"/><g fill="#2c3e50"><path d="m117.957031 495.769531h-67.148437c-4.636719 0-8.394532-3.757812-8.394532-8.394531s3.757813-8.394531 8.394532-8.394531h67.148437c4.632813 0 8.390625 3.757812 8.390625 8.394531s-3.757812 8.394531-8.390625 8.394531zm0 0"/><path d="m17.234375 495.894531h-8.394531c-4.636719 0-8.394532-3.757812-8.394532-8.394531s3.757813-8.394531 8.394532-8.394531h8.394531c4.636719 0 8.394531 3.757812 8.394531 8.394531s-3.757812 8.394531-8.394531 8.394531zm0 0"/><path d="m386.546875 495.769531h-67.148437c-4.636719 0-8.394532-3.757812-8.394532-8.394531s3.757813-8.394531 8.394532-8.394531h67.148437c4.632813 0 8.390625 3.757812 8.390625 8.394531s-3.757812 8.394531-8.390625 8.394531zm0 0"/><path d="m285.824219 495.894531h-8.394531c-4.632813 0-8.390626-3.757812-8.390626-8.394531s3.757813-8.394531 8.390626-8.394531h8.394531c4.636719 0 8.394531 3.757812 8.394531 8.394531s-3.757812 8.394531-8.394531 8.394531zm0 0"/></g><path d="m76.828125 437.015625h-51.199219c-9.261718-.03125-16.761718-7.527344-16.789062-16.789063-.023438-4.453124 1.765625-8.726562 4.953125-11.835937 3.109375-3.1875 7.378906-4.972656 11.835937-4.949219h453.246094c9.257812.027344 16.757812 7.527344 16.785156 16.785156-.070312 9.242188-7.542968 16.71875-16.785156 16.789063h-51.203125" fill="#285680"/><path d="m239.660156 160.03125h25.179688c118.207031 0 214.035156 95.824219 214.035156 214.03125v29.378906h-453.246094v-29.378906c0-118.207031 95.824219-214.03125 214.03125-214.03125zm0 0" fill="#2980ba"/><path d="m252.25 160.03125c55.652344 0 109.023438 22.105469 148.375 61.457031 39.355469 39.351563 61.460938 92.726563 61.460938 148.378907v33.574218h-419.671876v-33.574218c0-115.890626 93.945313-209.835938 209.835938-209.835938zm0 0" fill="#2fa8cc"/><path d="m386.546875 495.769531c-27.816406 0-50.363281-22.546875-50.363281-50.363281 0-27.8125 22.546875-50.359375 50.363281-50.359375 27.8125 0 50.359375 22.546875 50.359375 50.359375-.027344 27.804688-22.558594 50.335938-50.359375 50.363281zm0 0" fill="#2c3e50"/><path d="m159.921875 210.390625s-41.964844 25.179687-58.753906 58.753906h41.96875c1.355469-20.554687 7.078125-40.582031 16.785156-58.753906zm0 0" fill="#ecf0f1"/><path d="m134.742188 302.71875h-50.359376s-16.789062 16.785156-16.789062 67.148438h67.148438c-5.363282-22.0625-5.363282-45.085938 0-67.148438zm0 0" fill="#ecf0f1"/><path d="m117.957031 495.769531c-27.816406 0-50.363281-22.546875-50.363281-50.363281 0-27.8125 22.546875-50.359375 50.363281-50.359375 27.8125 0 50.359375 22.546875 50.359375 50.359375-.027344 27.804688-22.558594 50.335938-50.359375 50.363281zm0 0" fill="#2c3e50"/><path d="m117.957031 487.375c-23.179687 0-41.96875-18.789062-41.96875-41.96875 0-23.175781 18.789063-41.964844 41.96875-41.964844 23.175781 0 41.964844 18.789063 41.964844 41.964844-.027344 23.167969-18.800781 41.941406-41.964844 41.96875zm0 0" fill="#35495e"/><path d="m117.957031 470.585938c-13.910156 0-25.183593-11.273438-25.183593-25.179688s11.273437-25.179688 25.183593-25.179688c13.90625 0 25.179688 11.273438 25.179688 25.179688s-11.273438 25.179688-25.179688 25.179688zm0 0" fill="#95a5a5"/><path d="m386.546875 487.375c-23.179687 0-41.96875-18.789062-41.96875-41.96875 0-23.175781 18.789063-41.964844 41.96875-41.964844 23.175781 0 41.964844 18.789063 41.964844 41.964844-.027344 23.167969-18.800781 41.941406-41.964844 41.96875zm0 0" fill="#35495e"/><path d="m243.941406 76.019531c.753906.570313 1.484375 1.175781 2.199219 1.8125-15.210937-13.65625-24.234375-29.636719-46.03125-33.050781-21.796875-3.417969-47.320313 2.9375-64.703125-13.984375-7.332031-8.988281-15.894531-16.898437-25.433594-23.503906-9.964844-5.160157-21.09375-7.65625-32.304687-7.2500002-9.164063.3359372-18.253907 1.7812502-27.070313 4.3046872-4.625 1.242188-9.234375 2.695313-13.730468 4.199219-2.519532.839844-8.644532 4.371094-11.230469 3.859375 11.480469 2.265625 22.894531 5.078125 34.152343 8.285156 18.632813 5.304688 34.414063 11.019532 45.8125 27.699219 3.59375 6.070313 7.5 11.953125 11.699219 17.625 11.203125 13.3125 31.164063 12.816406 46.917969 10.070313 14.007812-2.457032 27.632812-7.089844 41.785156-8.550782 13.261719-2.007812 26.792969 1.019532 37.9375 8.484375zm0 0" fill="#95a5a5"/><path d="m8.839844 94.890625c1.21875.308594 6.238281-2.832031 7.421875-3.300781 6.828125-2.691406 13.925781-4.660156 21.167969-5.875 12.664062-2.519532 25.785156-1.300782 37.769531 3.507812 12.398437 6.316406 25.171875 11.871094 38.25 16.636719 14.929687 5.09375 30.847656 6.609375 46.472656 4.421875-.839844.144531-6.136719 11.347656-7.425781 13.101562-3.105469 4.253907-6.804688 8.039063-10.988282 11.242188-14.769531 9.90625-33.605468 11.492188-49.824218 4.195312-17.191406-7.09375-28.285156-21.46875-44.132813-29.988281-12.300781-6.179687-25.296875-10.859375-38.710937-13.941406zm0 0" fill="#95a5a5"/><path d="m386.546875 470.585938c-13.910156 0-25.183594-11.273438-25.183594-25.179688s11.273438-25.179688 25.183594-25.179688c13.90625 0 25.179687 11.273438 25.179687 25.179688s-11.273437 25.179688-25.179687 25.179688zm0 0" fill="#95a5a5"/></svg>