<svg height="464pt" viewBox="-40 0 464 464" width="464pt" xmlns="http://www.w3.org/2000/svg"><path d="m344 0h-304l-40 104v288h384v-288zm0 0" fill="#ceb195"/><path d="m40 0-40 104h384l-40-104zm0 0" fill="#edd9be"/><path d="m24.800781 40h334.398438l-5.597657-16h-323.203124zm0 0" fill="#ceb195"/><path d="m256 96c0 35.347656-28.652344 64-64 64s-64-28.652344-64-64 28.652344-64 64-64 64 28.652344 64 64zm0 0" fill="#2ab793"/><path d="m210.398438 66.398438-34.398438 34.402343-10.398438-10.402343-11.203124 11.203124 21.601562 21.597657 45.601562-45.597657zm0 0" fill="#fff"/><path d="m320 248h-104v-88c0-8.800781-7.199219-16-16-16h-8c-8.800781 0-16 7.199219-16 16v112h-24c-8.800781 0-16 7.199219-16 16v56l48 88v32h128v-32l24-56v-112c0-8.800781-7.199219-16-16-16zm0 0" fill="#efccbf"/><g fill="#c9a8a3"><path d="m286.398438 412.800781-12.796876-9.601562 14.398438-21.597657v-29.601562h16v34.398438zm0 0"/><path d="m184 432h128v32h-128zm0 0"/><path d="m176 312-16-40h16zm0 0"/></g></svg>