<?xml version="1.0" encoding="iso-8859-1"?>
<!-- Generator: Adobe Illustrator 19.0.0, SVG Export Plug-In . SVG Version: 6.00 Build 0)  -->
<svg version="1.1" id="Layer_1" xmlns="http://www.w3.org/2000/svg" xmlns:xlink="http://www.w3.org/1999/xlink" x="0px" y="0px"
	 viewBox="0 0 512 512" style="enable-background:new 0 0 512 512;" xml:space="preserve">
<g>
	<circle style="fill:#FFAB5F;" cx="145.23" cy="293.396" r="31.01"/>
	<circle style="fill:#FFAB5F;" cx="359.225" cy="293.396" r="31.01"/>
</g>
<path style="fill:#78B591;" d="M228.663,188.81c5.612-13.802,18.309-23.572,33.135-25.492c3.956-0.513,7.891,1.086,10.366,4.215
	c9.273,11.723,11.552,27.577,5.937,41.382c-5.612,13.802-18.309,23.574-33.135,25.493c-3.956,0.513-7.889-1.087-10.362-4.213
	C225.325,218.472,223.049,202.613,228.663,188.81z"/>
<path style="fill:#B0CE6F;" d="M184.034,239.733c-13.802-5.617-23.571-18.313-25.493-33.138c-0.513-3.957,1.087-7.89,4.215-10.365
	c11.722-9.276,27.577-11.552,41.383-5.939c13.802,5.615,23.573,18.31,25.492,33.137c0.513,3.955-1.087,7.888-4.212,10.362
	C213.695,243.067,197.838,245.344,184.034,239.733z"/>
<path style="fill:#659B7B;" d="M234.326,253.809c-1.015,0-2.045-0.192-3.042-0.598c-4.137-1.68-6.125-6.398-4.444-10.534
	l18.84-46.335c1.681-4.135,6.394-6.127,10.534-4.443c4.136,1.68,6.125,6.398,4.444,10.534l-18.841,46.335
	C240.541,251.906,237.517,253.809,234.326,253.809z"/>
<path style="fill:#7E8E51;" d="M240.942,242.152c-1.014,0-2.045-0.192-3.042-0.598l-46.333-18.843
	c-4.136-1.681-6.125-6.398-4.443-10.534c1.68-4.136,6.399-6.127,10.534-4.443l46.333,18.842c4.136,1.682,6.125,6.398,4.443,10.534
	C247.158,240.25,244.134,242.152,240.942,242.152z"/>
<path style="fill:#EF645E;" d="M311.467,268.486c0-16.917-13.713-30.63-30.63-30.63c-1.556,0-3.081,0.116-4.575,0.341
	c-4.533-11.248-15.541-19.192-28.412-19.192c-12.778,0-23.724,7.827-28.319,18.946c-0.764-0.056-1.535-0.095-2.313-0.095
	c-16.916,0-30.629,13.713-30.629,30.63c0,0.144,0.008,0.287,0.01,0.434c-12.068,2.211-21.217,12.776-21.217,25.484
	c0,14.314,11.604,25.919,25.918,25.919c12.709,0,107.313,0,120.166,0c14.313,0,25.919-11.604,25.919-25.919
	C337.386,280.089,325.78,268.486,311.467,268.486z"/>
<path style="fill:#C14616;" d="M283.193,268.793h-4.111c-4.465,0-8.083-3.62-8.083-8.084s3.618-8.083,8.083-8.083h4.111
	c4.465,0,8.083,3.618,8.083,8.083C291.278,265.173,287.659,268.793,283.193,268.793z"/>
<path style="opacity:0.1;enable-background:new    ;" d="M198.871,305.452c0-12.709,9.15-23.273,21.218-25.485
	c-0.002-0.145-0.012-0.289-0.012-0.434c0-16.916,13.714-30.63,30.63-30.63c0.779,0,1.55,0.039,2.314,0.095
	c3.476-8.416,10.597-14.939,19.395-17.615c-5.581-7.504-14.495-12.379-24.566-12.379c-12.778,0-23.724,7.827-28.319,18.946
	c-0.764-0.056-1.535-0.095-2.313-0.095c-16.916,0-30.629,13.713-30.629,30.63c0,0.144,0.008,0.287,0.01,0.434
	c-12.068,2.211-21.217,12.776-21.217,25.484c0,14.314,11.604,25.919,25.918,25.919c2.099,0,6.439,0,12.266,0
	C200.611,316.111,198.871,310.987,198.871,305.452z"/>
<path style="fill:#FFAB5F;" d="M248.426,251.121h-4.11c-4.465,0-8.084-3.62-8.084-8.084s3.62-8.083,8.084-8.083h4.11
	c4.465,0,8.083,3.618,8.083,8.083S252.89,251.121,248.426,251.121z"/>
<path style="fill:#C14616;" d="M236.07,275.861h-4.11c-4.465,0-8.084-3.62-8.084-8.084c0-4.466,3.62-8.083,8.084-8.083h4.11
	c4.465,0,8.084,3.618,8.084,8.083C244.154,272.242,240.534,275.861,236.07,275.861z"/>
<g>
	<path style="fill:#FFAB5F;" d="M271.988,293.533h-4.111c-4.465,0-8.083-3.62-8.083-8.084c0-4.465,3.618-8.083,8.083-8.083h4.111
		c4.465,0,8.083,3.618,8.083,8.083C280.071,289.913,276.453,293.533,271.988,293.533z"/>
	<path style="fill:#FFAB5F;" d="M204.261,293.533h-4.111c-4.464,0-8.083-3.62-8.083-8.084c0-4.465,3.62-8.083,8.083-8.083h4.111
		c4.465,0,8.083,3.618,8.083,8.083C212.344,289.913,208.727,293.533,204.261,293.533z"/>
</g>
<path style="fill:#FFE783;" d="M468.345,370.178c0,35.719-28.955,64.675-64.674,64.675H164.378
	c-35.718,0-64.674-28.956-64.674-64.675l0,0c0-35.718,28.956-64.674,64.674-64.674h239.293
	C439.39,305.505,468.345,334.461,468.345,370.178L468.345,370.178z"/>
<path style="fill:#FFF4BD;" d="M164.378,413.295c-23.774,0-43.116-19.342-43.116-43.117c0-23.774,19.342-43.116,43.116-43.116
	h239.293c23.774,0,43.117,19.342,43.117,43.116c0,23.775-19.343,43.117-43.117,43.117H164.378z"/>
<path style="fill:#F7E07C;" d="M164.378,391.736c-11.887,0-21.557-9.671-21.557-21.558c0-11.887,9.671-21.557,21.557-21.557h239.293
	c11.888,0,21.558,9.671,21.558,21.557c0,11.888-9.671,21.558-21.558,21.558H164.378z"/>
<path style="fill:#FFE783;" d="M379.958,393.7c0,29.765-24.13,53.895-53.895,53.895h-79.764c-29.765,0-53.895-24.13-53.895-53.895
	l0,0c0-29.765,24.13-53.895,53.895-53.895h79.764C355.828,339.805,379.958,363.935,379.958,393.7L379.958,393.7z"/>
<path style="fill:#FFF4BD;" d="M246.299,426.036c-17.83,0-32.336-14.506-32.336-32.336c0-17.831,14.506-32.336,32.336-32.336h79.764
	c17.83,0,32.336,14.506,32.336,32.336s-14.506,32.336-32.336,32.336H246.299z"/>
<path style="fill:#FFE783;" d="M246.299,404.479c-5.943,0-10.778-4.836-10.778-10.778c0-5.942,4.836-10.778,10.778-10.778h79.764
	c5.943,0,10.778,4.836,10.778,10.778c0,5.942-4.836,10.778-10.778,10.778H246.299z"/>
<path style="fill:#F7E07C;" d="M231.208,359.4c0,29.765-24.13,53.895-53.895,53.895H97.549c-29.765,0-53.894-24.13-53.894-53.895
	l0,0c0-29.765,24.129-53.895,53.894-53.895h79.764C207.079,305.505,231.208,329.635,231.208,359.4L231.208,359.4z"/>
<path style="fill:#FFF4BD;" d="M97.549,391.736c-17.829,0-32.336-14.506-32.336-32.336s14.507-32.336,32.336-32.336h79.764
	c17.83,0,32.337,14.506,32.337,32.336s-14.507,32.336-32.337,32.336H97.549z"/>
<path style="fill:#FFE783;" d="M97.549,370.178c-5.943,0-10.778-4.836-10.778-10.778s4.836-10.778,10.778-10.778h79.764
	c5.943,0,10.779,4.836,10.779,10.778s-4.836,10.778-10.779,10.778H97.549z"/>
<path style="fill:#F2D8A0;" d="M97.549,218.735H69.661c-24.142,0-43.785-19.642-43.785-43.784c0-24.143,19.643-43.785,43.785-43.785
	H96.24c4.465,0,8.084,3.618,8.084,8.083s-3.62,8.084-8.084,8.084H69.661c-15.228,0-27.618,12.389-27.618,27.618
	c0,15.227,12.388,27.617,27.618,27.617h27.887c4.465,0,8.084,3.62,8.084,8.083C105.634,215.115,102.014,218.735,97.549,218.735z"/>
<path style="fill:#FCE9C3;" d="M165.438,147.333h-31.183c-4.465,0-8.084-3.62-8.084-8.084s3.62-8.083,8.084-8.083h31.183
	c17.544,0,31.817-14.273,31.817-31.818c0-17.544-14.273-31.817-31.817-31.817H130.23c-4.465,0-8.084-3.62-8.084-8.084
	s3.62-8.083,8.084-8.083h35.208c26.459,0,47.986,21.527,47.986,47.986C213.424,125.806,191.897,147.333,165.438,147.333z"/>
<path style="fill:#F2D8A0;" d="M427.993,185.32h-64.191c-13.38,0-24.266-10.886-24.266-24.265c0-13.38,10.886-24.264,24.266-24.264
	h22.318c4.465,0,8.083-3.62,8.083-8.084c0-4.465-3.618-8.083-8.083-8.083h-22.318c-22.295,0-40.433,18.137-40.433,40.431
	s18.138,40.432,40.433,40.432h64.192c10.487,0,19.018,8.533,19.018,19.019v17.599c0,4.465,3.62,8.084,8.084,8.084
	c4.465,0,8.083-3.62,8.083-8.084v-17.599C463.18,201.105,447.396,185.32,427.993,185.32z"/>
<path style="fill:#B3B3B3;" d="M71.431,418.529c8.514,24.508,31.79,42.109,59.198,42.109h250.74
	c27.41,0,50.685-17.601,59.199-42.109H71.431z"/>
<path style="opacity:0.1;enable-background:new    ;" d="M115.087,418.529H71.431c8.514,24.508,31.79,42.109,59.198,42.109h43.654
	C146.875,460.638,123.6,443.037,115.087,418.529z"/>
<path style="fill:#CCCCCC;" d="M512,412.575c0,9.449-7.659,17.108-17.108,17.108H17.107C7.659,429.683,0,422.024,0,412.575l0,0
	c0-9.448,7.659-17.107,17.107-17.107h477.785C504.341,395.468,512,403.127,512,412.575L512,412.575z"/>
<path style="opacity:0.1;enable-background:new    ;" d="M43.655,412.575c0-9.448,7.658-17.107,17.107-17.107H17.107
	C7.659,395.468,0,403.127,0,412.575c0,9.449,7.659,17.108,17.107,17.108h43.655C51.313,429.683,43.655,422.024,43.655,412.575z"/>
<g>
</g>
<g>
</g>
<g>
</g>
<g>
</g>
<g>
</g>
<g>
</g>
<g>
</g>
<g>
</g>
<g>
</g>
<g>
</g>
<g>
</g>
<g>
</g>
<g>
</g>
<g>
</g>
<g>
</g>
</svg>
