<?xml version="1.0" encoding="iso-8859-1"?>
<!-- Generator: Adobe Illustrator 19.0.0, SVG Export Plug-In . SVG Version: 6.00 Build 0)  -->
<svg version="1.1" id="Capa_1" xmlns="http://www.w3.org/2000/svg" xmlns:xlink="http://www.w3.org/1999/xlink" x="0px" y="0px"
	 viewBox="0 0 512 512" style="enable-background:new 0 0 512 512;" xml:space="preserve">
<polygon style="fill:#F9E8D4;" points="0,57.943 0,481.441 472.852,481.441 "/>
<polygon style="fill:#E8D0BA;" points="472.855,481.439 0,481.439 0,459.32 447.502,459.32 "/>
<polygon style="fill:#FF9017;" points="472.852,481.441 472.852,392.283 109.855,57.943 0,57.943 "/>
<polygon style="fill:#EF7D0A;" points="472.855,392.286 472.855,481.439 447.502,458.735 447.502,368.934 "/>
<path style="fill:#1BCF92;" d="M511.969,347.545c-0.955,28.804-24.162,52.401-52.946,53.839
	c-17.354,0.862-33.096-6.223-43.899-17.95L181.552,170.922c-2.742-2.495-5.596-4.867-8.41-7.281
	c-11.131-9.56-18.083-23.875-17.662-39.833c0.678-26.031,21.4-47.565,47.39-49.198c19.727-1.243,37.242,8.844,46.644,24.402
	c1.352,2.237,4.157,3.153,6.523,2.042c4.925-2.313,10.413-3.631,16.208-3.679c17.285-0.139,32.016,10.991,37.246,26.526
	c0.911,2.707,3.839,4.102,6.545,3.185c6.486-2.197,13.512-3.24,20.83-2.869c27.561,1.427,50.194,23.218,52.648,50.707
	c0.581,6.588,0.003,12.963-1.541,18.954c-0.579,2.247,0.481,4.577,2.505,5.712c9.796,5.493,16.988,15.095,19.208,26.494
	c0.513,2.632,3.02,4.428,5.674,4.048c2.203-0.316,4.45-0.49,6.736-0.507c27.982-0.236,50.861,22.263,51.087,50.245
	c0.027,2.717-0.17,5.382-0.563,7.981c-0.36,2.381,0.979,4.698,3.233,5.547C497.502,301.56,512.782,322.783,511.969,347.545z"/>
<path style="fill:#11BA7D;" d="M511.969,347.545c-0.513,15.454-7.435,29.41-18.186,39.247c2.341-5.833,3.717-12.138,3.933-18.71
	c0.822-24.76-14.456-45.983-36.11-54.142c-2.254-0.849-3.593-3.166-3.233-5.548c0.393-2.6,0.588-5.265,0.568-7.981
	c-0.236-27.982-23.115-50.481-51.097-50.245c-2.285,0.017-4.53,0.191-6.729,0.506c-2.653,0.381-5.16-1.414-5.674-4.045
	c-2.224-11.4-9.412-21.003-19.214-26.496c-2.025-1.135-3.085-3.466-2.505-5.714c1.546-5.991,2.129-12.365,1.54-18.952
	c-2.454-27.489-25.076-49.28-52.638-50.707c-7.326-0.371-14.348,0.671-20.836,2.869c-2.707,0.917-5.636-0.48-6.548-3.189
	c-5.226-15.533-19.964-26.661-37.248-26.522c-5.793,0.048-11.279,1.365-16.198,3.676c-2.366,1.112-5.172,0.196-6.524-2.041
	c-9.404-15.558-26.927-25.644-46.654-24.401c-11.429,0.719-21.842,5.288-29.975,12.384c6.829-18.227,23.926-31.648,44.228-32.922
	c19.727-1.244,37.242,8.844,46.645,24.403c1.352,2.237,4.157,3.153,6.523,2.042c4.925-2.313,10.413-3.631,16.208-3.679
	c17.285-0.139,32.016,10.991,37.246,26.526c0.911,2.707,3.839,4.102,6.545,3.185c6.486-2.197,13.512-3.24,20.83-2.869
	c27.561,1.427,50.194,23.218,52.648,50.707c0.581,6.589,0.003,12.963-1.541,18.955c-0.579,2.247,0.481,4.577,2.505,5.712
	c9.796,5.493,16.989,15.096,19.209,26.495c0.513,2.632,3.02,4.428,5.674,4.047c2.203-0.316,4.45-0.49,6.737-0.507
	c27.982-0.236,50.861,22.263,51.087,50.245c0.027,2.716-0.17,5.381-0.563,7.981c-0.36,2.382,0.979,4.698,3.233,5.548
	C497.502,301.56,512.782,322.784,511.969,347.545z"/>
<path style="fill:#1BCF92;" d="M336.428,198.621c-2.184-0.851-3.477-3.083-3.196-5.409c0.211-1.746,0.307-3.527,0.278-5.336
	c-0.349-21.655-18.187-38.926-39.842-38.577c-1.439,0.023-2.858,0.126-4.253,0.302c-2.575,0.325-4.976-1.367-5.573-3.892
	c-2.234-9.453-8.91-17.157-17.672-20.84c1.906-5.807,2.632-12.142,1.839-18.73c-2.448-20.321-19.199-36.317-39.612-37.819
	c-5.812-0.428-11.387,0.302-16.537,1.968c-2.61,0.844-5.36-0.59-6.348-3.149c-4.424-11.45-15.62-19.489-28.609-19.279
	c-4.163,0.067-8.113,0.977-11.695,2.562c-2.283,1.01-4.979,0.227-6.331-1.871c-7.281-11.291-20.187-18.582-34.692-17.955
	c-20.022,0.865-36.412,17.068-37.442,37.081c-0.663,12.892,4.878,24.467,13.868,32.061c2.192,1.852,4.412,3.671,6.549,5.586
	l182.042,163.05c8.341,8.914,20.405,14.28,33.661,13.642c22.438-1.081,40.501-19.551,41.066-42.008
	C364.405,221.139,352.823,205.012,336.428,198.621z"/>
<path style="fill:#11BA7D;" d="M363.935,240.01c-0.38,14.859-8.42,28.003-20.342,35.479c3.994-6.356,6.387-13.791,6.582-21.729
	c0.476-18.867-11.107-35.001-27.507-41.389c-2.181-0.849-3.468-3.083-3.187-5.407c0.211-1.745,0.307-3.526,0.278-5.339
	c-0.349-21.647-18.186-38.919-39.843-38.569c-1.443,0.024-2.865,0.125-4.262,0.301c-2.573,0.323-4.972-1.369-5.569-3.893
	c-1.921-8.13-7.125-14.968-14.116-19.061c-1.95-1.142-3.001-3.372-2.494-5.573c1.018-4.42,1.361-9.095,0.892-13.906
	c-2.064-21.267-19.706-37.994-41.044-38.929c-5.344-0.236-10.469,0.508-15.232,2.051c-2.604,0.844-5.347-0.602-6.334-3.155
	c-4.424-11.449-15.622-19.487-28.607-19.28c-4.161,0.066-8.111,0.978-11.69,2.564c-2.327,1.031-5.018,0.159-6.404-1.976
	c-7.481-11.521-20.832-18.846-35.735-17.788c-6.223,0.442-12.045,2.352-17.128,5.391c6.387-10.71,17.734-18.217,30.878-19.141
	c14.912-1.059,28.256,6.266,35.735,17.78c1.386,2.133,4.074,3.006,6.4,1.977c3.58-1.584,7.531-2.491,11.694-2.557
	c12.994-0.207,24.185,7.831,28.607,19.28c0.986,2.553,3.73,3.999,6.334,3.156c4.766-1.544,9.895-2.288,15.233-2.052
	c21.338,0.935,38.99,17.662,41.044,38.919c0.606,6.223-0.144,12.199-1.951,17.703c8.762,3.685,15.443,11.387,17.679,20.841
	c0.597,2.525,2.999,4.216,5.574,3.891c1.394-0.176,2.812-0.279,4.247-0.303c21.657-0.349,39.494,16.923,39.843,38.579
	c0.029,1.808-0.067,3.591-0.278,5.339c-0.281,2.323,1.007,4.557,3.188,5.406C352.817,205.008,364.402,221.134,363.935,240.01z"/>
<path style="fill:#FEC007;" d="M206.548,192.96l158.757,1.638c2.835,0.029,5.11,2.352,5.081,5.187l-1.456,141.148L206.548,192.96z"
	/>
<path style="fill:#EF2929;" d="M239.024,163.856c1.042,17.243-5.022,33.275-15.644,45.253l-93.627-83.023
	c10.621-11.978,25.821-19.91,43.065-20.938C207.312,103.071,236.953,129.356,239.024,163.856z"/>
<path style="fill:#D31A1A;" d="M223.376,209.112l-11.419-10.125c5.473-9.981,8.287-21.564,7.558-33.764
	c-1.889-31.402-26.606-55.985-57.043-58.583c3.348-0.78,6.808-1.273,10.351-1.489c34.493-2.084,64.128,24.203,66.203,58.706
	C240.063,181.099,234.004,197.128,223.376,209.112z"/>
<path style="fill:#EF2929;" d="M333.487,249.812c0.808,17.255-5.465,33.211-16.248,45.044l-92.492-84.285
	c10.783-11.833,26.089-19.558,43.337-20.359C302.609,188.609,331.892,215.293,333.487,249.812z"/>
<path style="fill:#D31A1A;" d="M317.793,294.855l-11.419-10.125c5.473-9.981,8.287-21.564,7.558-33.764
	c-1.889-31.402-26.606-55.985-57.043-58.583c3.348-0.78,6.808-1.273,10.351-1.489c34.493-2.084,64.128,24.203,66.203,58.706
	C334.479,266.842,328.421,282.872,317.793,294.855z"/>
<path style="fill:#EF2929;" d="M428.228,336.237c0.808,17.255-5.465,33.211-16.248,45.044l-92.5-84.292
	c10.783-11.833,26.089-19.558,43.345-20.352C397.343,275.027,426.625,301.711,428.228,336.237z"/>
<path style="fill:#D31A1A;" d="M412.534,381.281l-11.419-10.125c5.473-9.981,8.287-21.564,7.558-33.764
	c-1.889-31.402-26.606-55.985-57.043-58.583c3.348-0.78,6.808-1.273,10.351-1.489c34.493-2.084,64.128,24.203,66.203,58.706
	C429.221,353.268,423.162,369.297,412.534,381.281z"/>
<g>
</g>
<g>
</g>
<g>
</g>
<g>
</g>
<g>
</g>
<g>
</g>
<g>
</g>
<g>
</g>
<g>
</g>
<g>
</g>
<g>
</g>
<g>
</g>
<g>
</g>
<g>
</g>
<g>
</g>
</svg>
