<svg height="512pt" viewBox="0 0 512 512" width="512pt" xmlns="http://www.w3.org/2000/svg" xmlns:xlink="http://www.w3.org/1999/xlink"><linearGradient id="a" gradientUnits="userSpaceOnUse" x1="0" x2="512" y1="256" y2="256"><stop offset="0" stop-color="#00f1ff"/><stop offset=".231" stop-color="#00d8ff"/><stop offset=".5138" stop-color="#00c0ff"/><stop offset=".7773" stop-color="#00b2ff"/><stop offset="1" stop-color="#00adff"/></linearGradient><path d="m512 256c0 141.386719-114.613281 256-256 256s-256-114.613281-256-256 114.613281-256 256-256 256 114.613281 256 256zm0 0" fill="url(#a)"/><g fill="#fff"><path d="m398.410156 298.929688h-.757812l-16.023438-56.09375c-4.777344-16.714844-20.25-28.386719-37.632812-28.386719h-175.992188c-17.382812 0-32.855468 11.671875-37.632812 28.386719l-16.027344 56.09375h-.753906c-8.28125 0-15 6.714843-15 15 0 8.285156 6.71875 15 15 15h.753906l16.027344 56.09375c4.773437 16.714843 20.25 28.386718 37.632812 28.386718h175.992188c17.382812 0 32.855468-11.671875 37.632812-28.386718l6.03125-21.113282c2.273438-7.964844-2.335937-16.265625-10.300781-18.542968-7.964844-2.273438-16.269531 2.335937-18.546875 10.304687l-6.03125 21.109375c-1.113281 3.902344-4.726562 6.628906-8.785156 6.628906h-175.992188c-4.058594 0-7.671875-2.726562-8.785156-6.628906l-13.671875-47.851562h66.4375l8.191406 11.707031c2.808594 4.007812 7.394531 6.394531 12.289063 6.394531h47.671875c4.894531 0 9.480469-2.386719 12.289062-6.394531l8.191407-11.707031h85.617187c.035156 0 .066406.003906.097656.003906.035157 0 .074219-.003906.113281-.003906h11.960938c8.285156 0 15-6.714844 15-15 .003906-8.285157-6.714844-15-14.996094-15zm-105.601562 0c-4.894532 0-9.480469 2.386718-12.289063 6.398437l-8.191406 11.703125h-32.050781l-8.195313-11.703125c-2.804687-4.011719-7.394531-6.398437-12.285156-6.398437h-74.25l13.671875-47.851563c1.113281-3.902344 4.726562-6.628906 8.785156-6.628906h175.992188c4.058594 0 7.671875 2.726562 8.785156 6.628906l13.671875 47.851563zm0 0"/><path d="m196.359375 201.003906c26.21875 0 44.175781-13.535156 49.523437-36.207031h122.355469c8.28125 0 15-6.714844 15-15s-6.71875-15-15-15h-122.273437c-3.59375-15.707031-12.636719-24.347656-20.5-29.019531-8.03125-4.769532-17.824219-7.1875-29.105469-7.1875-13.761719 0-26.640625 1.925781-37.238281 5.566406-23.078125 7.929688-35.789063 24.140625-35.789063 45.640625 0 31.585937 27.980469 51.207031 73.027344 51.207031zm0-72.414062c15.25 0 21.191406 5.945312 21.191406 21.207031 0 11.015625-2.566406 21.207031-21.191406 21.207031-10.09375 0-43.027344-1.53125-43.027344-21.207031s32.933594-21.207031 43.027344-21.207031zm0 0"/></g></svg>