<?xml version="1.0" encoding="utf-8"?>
<!-- Generator: Adobe Illustrator 17.0.0, SVG Export Plug-In . SVG Version: 6.00 Build 0)  -->
<!DOCTYPE svg PUBLIC "-//W3C//DTD SVG 1.1//EN" "http://www.w3.org/Graphics/SVG/1.1/DTD/svg11.dtd">
<svg version="1.1" id="Layer_1" xmlns="http://www.w3.org/2000/svg" xmlns:xlink="http://www.w3.org/1999/xlink" x="0px" y="0px"
	 width="595.28px" height="451.143px" viewBox="0 0 595.28 451.143" enable-background="new 0 0 595.28 451.143"
	 xml:space="preserve">
<path fill="#BCBEC0" d="M478.259,235.361c5.485-39.284-1.058-80.333-20.91-114.903c-6.434-11.209-14.107-21.681-22.983-31.082
	c-10.049-10.642-21.525-19.979-32.465-29.682c30.174,26.779,49.116,64.383,54.494,104.212c5.402,40.012-2.536,82.067-20.993,117.903
	c-18.341,35.609-45.66,66.076-79.574,87.508c-33.684,21.29-73.084,33.069-113.027,31.952
	c-36.331-1.145-71.998-13.279-100.489-36.062c-2.136-1.71-4.229-3.475-6.277-5.292c14.416,12.79,28.343,26.349,44.853,36.459
	c15.145,9.273,31.798,15.989,49.088,20.002c38.286,8.88,78.927,4.509,115.127-10.444c36.151-14.935,67.975-39.86,91.533-71.05
	C458.567,305.86,473.234,271.429,478.259,235.361z"/>
<path opacity="0.5" fill="#E7E7E7" fill-opacity="0.5" d="M345.103,405.932c12.631-5.218,24.718-11.683,36.125-19.181
	l-13.786-14.565c-1.659,1.114-3.325,2.222-5.017,3.292c-34.361,21.715-74.547,33.732-115.289,32.592
	c-28.889-0.909-57.347-8.663-82.263-23.033c5.124,4.06,10.416,7.906,16.014,11.337c15.145,9.273,31.798,15.989,49.088,20.002
	C268.261,425.256,308.902,420.885,345.103,405.932z"/>
<g>
	<path fill="#E6E7E8" d="M308.535,19.242c102.109,10.732,167.153,104.741,145.295,209.992
		c-21.855,105.239-122.334,181.864-224.443,171.132C127.293,389.635,62.238,295.611,84.093,190.373
		C105.951,85.12,206.442,8.51,308.535,19.242z"/>
</g>
<path fill="#F2F2F2" d="M307.82,24.263C209.286,13.906,112.294,87.847,91.2,189.432c-1.629,7.839-2.755,15.613-3.403,23.289
	c41.345,29.792,91.259,49.433,147.292,55.322c74.85,7.868,149.213-9.983,214.012-46.578
	C466.868,122.115,404.597,34.435,307.82,24.263z"/>
<path opacity="0.5" fill="#D2D3D4" d="M244.923,391.318c-91.013-9.566-157.355-88.902-136.916-187.334
	c20.447-98.451,114.437-170.104,209.93-160.066c80.168,8.425,127.077,76.005,130.645,150.674
	c3.973-88.827-55.852-163.128-144.607-172.46C205.1,11.741,107.776,85.934,86.611,187.867
	C65.444,289.786,128.45,380.848,227.325,391.24c8.962,0.941,17.918,1.18,26.8,0.774
	C251.061,391.866,247.995,391.641,244.923,391.318z"/>
<path fill="#E7E7E7" d="M293.76,39.72c5.746,0,11.548,0.304,17.242,0.902c42.594,4.475,79.496,25.353,103.905,58.785
	c12.684,17.372,21.395,37.192,25.891,58.92c4.691,22.669,4.542,46.333-0.441,70.334c-9.003,43.349-33.233,83.282-68.228,112.44
	c-34.628,28.852-76.795,44.743-118.726,44.743c-5.756,0-11.563-0.306-17.258-0.903c-42.587-4.477-79.484-25.356-103.895-58.791
	c-12.687-17.375-21.398-37.197-25.898-58.922c-4.692-22.669-4.543-46.33,0.437-70.328c9.006-43.351,33.237-83.284,68.234-112.439
	c34.627-28.849,76.79-44.739,118.732-44.74H293.76 M293.746,23.295C199.57,23.304,110.974,95.989,90.712,193.56
	C69.095,297.657,133.445,382.307,234.43,392.922c6.344,0.666,12.663,0.992,18.974,0.992c94.186,0,175.157-69.788,195.418-167.347
	C470.441,122.458,413.719,34.901,312.72,24.286C306.378,23.62,300.055,23.295,293.746,23.295L293.746,23.295z"/>
<path fill="#D2D3D4" d="M289.368,34.843c5.809,0,11.675,0.307,17.432,0.912c43.062,4.526,80.367,25.632,105.044,59.431
	c12.823,17.561,21.632,37.603,26.175,59.565c4.744,22.917,4.594,46.842-0.444,71.106c-9.103,43.826-33.598,84.196-68.976,113.673
	c-35.007,29.169-77.635,45.235-120.027,45.235c-5.82,0-11.691-0.307-17.448-0.912c-43.056-4.526-80.358-25.633-105.037-59.436
	c-12.824-17.564-21.632-37.606-26.178-59.568c-4.744-22.918-4.595-46.839,0.444-71.101c9.1-43.83,33.598-84.2,68.978-113.674
	c35.006-29.164,77.634-45.229,120.035-45.232H289.368 M289.351,18.238c-95.207,0.008-184.774,73.494-205.258,172.135
	c-21.855,105.238,43.2,199.262,145.293,209.993c6.415,0.674,12.804,1.004,19.185,1.004c95.218,0,184.777-73.508,205.259-172.136
	c21.858-105.251-43.185-199.26-145.295-209.992C302.123,18.568,295.732,18.238,289.351,18.238L289.351,18.238z"/>
<path opacity="0.7" fill="#BCBEC0" d="M308.535,19.242c-6.412-0.674-12.802-1.004-19.183-1.004
	c-95.207,0.008-184.774,73.494-205.258,172.135c-1.844,8.885-3.058,17.689-3.693,26.372c5.239,3.674,10.613,7.188,16.108,10.544
	c0.228-11.063,1.5-22.263,3.843-33.54c9.1-43.83,33.598-84.2,68.978-113.674c35.006-29.164,77.634-45.229,120.035-45.232h0.003
	c5.809,0,11.675,0.307,17.432,0.912c43.062,4.526,80.367,25.632,105.044,59.431c12.823,17.561,21.632,37.603,26.175,59.565
	c4.744,22.917,4.594,46.842-0.444,71.106c-0.418,2.002-0.901,3.987-1.379,5.974c6.442-3.281,12.805-6.732,19.079-10.361
	C472.44,119.398,408.126,29.708,308.535,19.242z"/>
<polygon fill="#FFFFFF" points="209.905,116.757 225.994,121.354 211.565,112.783 210.009,108.791 214.633,92.255 206.145,107.127 
	202.247,108.751 186.16,104.154 200.589,112.733 202.143,116.715 197.511,133.256 206.002,118.387 "/>
<g>
	<path fill="#D2D3D4" d="M347.458,295.568l-40.404,32.383l-128.543-55.72l2.375-5.479l9.553,4.141
		c6.835,2.963,12.184,3.587,16.046,1.865c3.858-1.719,7.292-6.043,10.297-12.975l55.232-127.419
		c3.572-8.24,4.343-14.639,2.311-19.191c-2.032-4.552-7.262-8.655-15.691-12.309l-4.074-1.766l2.375-5.479l84.853,36.781
		l-2.375,5.479l-10.677-4.628c-12.27-5.319-20.409-6.177-24.417-2.574c-2.491,2.148-5.033,6.22-7.63,12.213l-57.486,132.617
		c-3.086,7.119-0.835,12.321,6.751,15.609l42.426,18.391c9.834,4.263,19.672,4.022,29.517-0.722
		c5.077-2.472,13.198-6.962,24.363-13.47L347.458,295.568z"/>
</g>
<g>
	<path fill="#BCBEC0" d="M343.061,293.387l-40.404,32.383l-128.543-55.72l2.375-5.479l9.553,4.141
		c6.835,2.963,12.184,3.587,16.046,1.865c3.858-1.719,7.292-6.043,10.297-12.975l55.232-127.419
		c3.572-8.24,4.343-14.639,2.311-19.191c-2.032-4.552-7.262-8.655-15.691-12.309l-4.074-1.766l2.375-5.479l84.853,36.781
		l-2.375,5.479l-10.677-4.628c-12.27-5.319-20.409-6.177-24.417-2.574c-2.491,2.148-5.033,6.22-7.63,12.213l-57.486,132.617
		c-3.086,7.119-0.835,12.321,6.751,15.609l42.426,18.391c9.834,4.263,19.672,4.022,29.517-0.722
		c5.077-2.472,13.198-6.962,24.363-13.47L343.061,293.387z"/>
</g>
</svg>
